<svg width="872" height="712" viewBox="0 0 872 712" fill="none" xmlns="http://www.w3.org/2000/svg">
    <path d="M872 625.695H0V626.172H872V625.695Z" fill="#E6E6E6"/>
    <path d="M217.686 654.61H159.925V655.087H217.686V654.61Z" fill="#E6E6E6"/>
    <path d="M141.648 654.61H108.18V655.087H141.648V654.61Z" fill="#E6E6E6"/>
    <path d="M367.199 661.642H333.732V662.12H367.199V661.642Z" fill="#E6E6E6"/>
    <path d="M541.704 672.306H466.38V672.784H541.704V672.306Z" fill="#E6E6E6"/>
    <path d="M450.859 672.306H439.819V672.784H450.859V672.306Z" fill="#E6E6E6"/>
    <path d="M790.642 661.642H627.264V662.12H790.642V661.642Z" fill="#E6E6E6"/>
    <path d="M413.328 540.46H76.5787C73.9407 540.454 71.4122 539.303 69.5485 537.257C67.6847 535.211 66.6379 532.438 66.6379 529.547V10.8168C66.6609 7.94259 67.7178 5.19433 69.5791 3.16902C71.4404 1.14371 73.9557 0.00492374 76.5787 0H413.328C415.969 0 418.502 1.1497 420.369 3.19617C422.237 5.24264 423.286 8.01824 423.286 10.9124V529.547C423.286 532.441 422.237 535.217 420.369 537.263C418.502 539.31 415.969 540.46 413.328 540.46ZM76.5787 0.382222C74.0563 0.387284 71.6388 1.48887 69.8568 3.44519C68.0748 5.40152 67.0739 8.05271 67.0739 10.8168V529.547C67.0739 532.311 68.0748 534.962 69.8568 536.919C71.6388 538.875 74.0563 539.977 76.5787 539.982H413.328C415.852 539.977 418.271 538.876 420.056 536.92C421.841 534.964 422.845 532.313 422.85 529.547V10.8168C422.845 8.05095 421.841 5.3998 420.056 3.44403C418.271 1.48825 415.852 0.387274 413.328 0.382222H76.5787Z" fill="#E6E6E6"/>
    <path d="M790.573 540.46H453.806C451.167 540.454 448.636 539.303 446.77 537.258C444.903 535.212 443.853 532.44 443.848 529.547V10.8168C443.876 7.94084 444.936 5.19261 446.801 3.16783C448.665 1.14305 451.182 0.00487004 453.806 0H790.573C793.193 0.00994632 795.704 1.15096 797.561 3.17573C799.419 5.2005 800.473 7.94589 800.496 10.8168V529.547C800.496 532.435 799.452 535.205 797.592 537.25C795.732 539.295 793.208 540.449 790.573 540.46ZM453.806 0.382222C451.282 0.387274 448.863 1.48825 447.078 3.44403C445.293 5.3998 444.289 8.05095 444.284 10.8168V529.547C444.289 532.313 445.293 534.964 447.078 536.92C448.863 538.876 451.282 539.977 453.806 539.982H790.573C793.097 539.977 795.516 538.876 797.301 536.92C799.086 534.964 800.09 532.313 800.095 529.547V10.8168C800.09 8.05095 799.086 5.3998 797.301 3.44403C795.516 1.48825 793.097 0.387274 790.573 0.382222H453.806Z" fill="#E6E6E6"/>
    <path d="M466.345 462.448H427.995V629.154H466.345V462.448Z" fill="#E0E0E0"/>
    <path d="M459.056 629.154H466.346V606.45H451.417L459.056 629.154Z" fill="#FAFAFA"/>
    <path d="M298.293 462.448H259.943V629.154H298.293V462.448Z" fill="#E0E0E0"/>
    <path d="M466.345 462.448H291.945V615.222H466.345V462.448Z" fill="#FAFAFA"/>
    <path d="M460.015 469.959V510.379H298.224V469.959H459.962H460.015ZM460.643 469.214H297.596V511.105H460.695V469.214H460.643Z" fill="#E0E0E0"/>
    <path d="M299.218 629.154H291.945V606.45H306.857L299.218 629.154Z" fill="#FAFAFA"/>
    <path d="M375.292 490.159C375.292 490.995 375.518 491.811 375.941 492.506C376.365 493.2 376.967 493.742 377.671 494.061C378.375 494.381 379.15 494.465 379.898 494.302C380.645 494.139 381.332 493.736 381.871 493.146C382.41 492.555 382.777 491.803 382.926 490.983C383.075 490.164 382.998 489.315 382.707 488.543C382.415 487.771 381.921 487.112 381.287 486.648C380.653 486.184 379.908 485.936 379.146 485.936C378.124 485.936 377.143 486.381 376.42 487.173C375.698 487.965 375.292 489.039 375.292 490.159Z" fill="#E6E6E6"/>
    <path d="M460.015 518.616V559.036H298.224V518.616H459.962H460.015ZM460.643 517.89H297.596V559.781H460.695V517.909L460.643 517.89Z" fill="#E0E0E0"/>
    <path d="M375.292 538.931C375.292 539.766 375.518 540.582 375.941 541.277C376.365 541.972 376.967 542.513 377.671 542.833C378.375 543.152 379.15 543.236 379.898 543.073C380.645 542.91 381.332 542.508 381.871 541.917C382.41 541.326 382.777 540.574 382.926 539.755C383.075 538.935 382.998 538.086 382.707 537.314C382.415 536.543 381.921 535.883 381.287 535.419C380.653 534.955 379.908 534.707 379.146 534.707C378.124 534.707 377.143 535.152 376.42 535.944C375.698 536.736 375.292 537.81 375.292 538.931Z" fill="#E6E6E6"/>
    <path d="M460.015 567.291V607.73H298.224V567.291H459.962H460.015ZM460.643 566.546H297.596V608.457H460.695V566.546H460.643Z" fill="#E0E0E0"/>
    <path d="M375.292 587.511C375.295 588.345 375.524 589.16 375.95 589.852C376.375 590.544 376.978 591.083 377.683 591.399C378.387 591.716 379.162 591.797 379.908 591.632C380.655 591.467 381.34 591.063 381.877 590.472C382.415 589.88 382.78 589.128 382.927 588.309C383.074 587.49 382.997 586.642 382.705 585.871C382.413 585.101 381.919 584.442 381.285 583.979C380.652 583.516 379.907 583.268 379.146 583.268C378.638 583.268 378.136 583.378 377.667 583.592C377.198 583.805 376.772 584.118 376.414 584.512C376.056 584.906 375.773 585.374 375.58 585.889C375.387 586.403 375.289 586.955 375.292 587.511Z" fill="#E6E6E6"/>
    <path d="M274.872 365.632H236.521V629.173H274.872V365.632Z" fill="#E0E0E0"/>
    <path d="M267.582 629.154H274.872V606.45H259.96L267.582 629.154Z" fill="#FAFAFA"/>
    <path d="M131.55 365.632H93.1997V629.173H131.55V365.632Z" fill="#E0E0E0"/>
    <path d="M274.872 365.632H125.184V615.241H274.872V365.632Z" fill="#FAFAFA"/>
    <path d="M268.419 372.665V429.176H131.637V372.665H268.419ZM269.221 371.805H130.8V429.998H269.186V371.824L269.221 371.805Z" fill="#E0E0E0"/>
    <path d="M268.419 436.075V585.963H203.263V436.075H268.419ZM269.221 435.196H202.478V586.842H269.221V435.196Z" fill="#E0E0E0"/>
    <path d="M196.793 436.075V585.963H131.637V436.075H196.793ZM197.578 435.196H130.8V586.842H197.543V435.196H197.578Z" fill="#E0E0E0"/>
    <path d="M132.474 629.154H125.184V606.45H140.113L132.474 629.154Z" fill="#FAFAFA"/>
    <path d="M196.165 400.949C196.162 401.789 196.386 402.611 196.809 403.311C197.233 404.011 197.836 404.558 198.543 404.882C199.25 405.206 200.029 405.293 200.782 405.132C201.534 404.97 202.225 404.567 202.768 403.975C203.312 403.382 203.682 402.626 203.833 401.803C203.984 400.979 203.908 400.125 203.616 399.349C203.323 398.573 202.827 397.909 202.19 397.442C201.553 396.975 200.803 396.725 200.037 396.725C199.013 396.725 198.031 397.17 197.305 397.961C196.58 398.753 196.17 399.827 196.165 400.949Z" fill="#E6E6E6"/>
    <path d="M209.978 507.455C209.978 508.295 210.205 509.116 210.632 509.814C211.058 510.512 211.663 511.056 212.372 511.376C213.08 511.697 213.86 511.78 214.611 511.615C215.363 511.449 216.053 511.043 216.593 510.448C217.134 509.853 217.501 509.095 217.649 508.271C217.796 507.447 217.717 506.593 217.421 505.818C217.126 505.043 216.627 504.382 215.988 503.918C215.349 503.454 214.599 503.208 213.832 503.212C213.324 503.212 212.822 503.322 212.353 503.536C211.884 503.749 211.459 504.062 211.101 504.456C210.742 504.85 210.459 505.318 210.266 505.833C210.074 506.347 209.976 506.899 209.978 507.455Z" fill="#E6E6E6"/>
    <path d="M182.37 507.455C182.374 508.289 182.603 509.104 183.028 509.796C183.454 510.488 184.057 511.026 184.761 511.343C185.466 511.66 186.24 511.741 186.987 511.576C187.733 511.411 188.419 511.007 188.956 510.415C189.493 509.824 189.859 509.071 190.006 508.253C190.153 507.434 190.076 506.586 189.784 505.815C189.491 505.044 188.997 504.386 188.364 503.923C187.73 503.459 186.986 503.212 186.224 503.212C185.717 503.212 185.214 503.322 184.745 503.535C184.277 503.749 183.851 504.062 183.493 504.456C183.135 504.85 182.851 505.318 182.659 505.833C182.466 506.347 182.368 506.899 182.37 507.455Z" fill="#E6E6E6"/>
    <path d="M178.01 292.15H161.843C163.333 300.744 164.271 309.442 164.651 318.179C164.651 327.735 152.338 365.632 169.883 365.632C187.427 365.632 175.115 327.83 175.115 318.179C175.523 309.439 176.491 300.742 178.01 292.15Z" fill="#E0E0E0"/>
    <path d="M116.499 330.907V342.374C116.517 348.521 118.754 354.41 122.721 358.757C126.687 363.104 132.062 365.554 137.671 365.574H148.135C153.745 365.554 159.119 363.104 163.086 358.757C167.052 354.41 169.289 348.521 169.307 342.374V330.907H116.499Z" fill="#F5F5F5"/>
    <path d="M341.249 438.139C341.249 451.517 354.904 462.448 371.594 462.448H386.662C403.352 462.448 417.008 451.517 417.008 438.139H341.249Z" fill="#E0E0E0"/>
    <path d="M740.52 418.531C731.381 426.711 718.755 441.675 707.209 462.735C699.501 476.763 694.862 491.402 692.821 510.857C692.821 488.879 692.943 465.277 693.013 442.993C695.333 437.26 700.635 424.035 704.436 413.601C717.115 378.761 721.876 370.18 733.265 340.138C748.49 300.005 764.081 252.495 759.617 256.298C750.513 264.038 715.633 335.609 711.866 345.852C701.598 373.189 695.25 402.102 693.048 431.565C693.048 410.543 693.188 391.432 693.257 376.602C693.502 328.232 694.251 312.618 694.618 307.802C696.03 305.356 697.687 302.508 698.664 300.979C706.861 287.984 710.017 276.938 717.726 257.559C728.678 230.135 738.096 181.421 735.34 183.867C723.865 194.111 714.831 216.088 702.937 244.124C691.043 272.16 694.443 288.271 692.089 312.198C691.601 316.899 691.217 334.634 690.938 359.192C687.868 333.009 682.078 315.771 671.527 300.1C658.552 280.817 645.995 267.803 636.787 260.999C627.578 254.196 652.692 301.553 664.691 322.154C675.381 340.577 685.235 356.803 690.851 372.799C690.554 406.109 690.415 448.268 690.415 487.465C687.659 469.615 683.16 450.37 677.16 435.483C669.94 417.595 658.848 390.151 650.006 380.844C647.896 378.608 659.249 431.985 666.539 446.166C673.829 460.346 679.183 473.743 683.77 481.789C684.834 483.7 688.392 490.905 690.415 495.071C690.415 542.982 690.659 585.256 691.042 599.646H692.926C692.804 595.939 692.769 571.553 692.821 539.294C697.373 521.788 707.767 501.798 716.348 483.566C725.696 463.824 749.658 410.409 740.52 418.531Z" fill="#E0E0E0"/>
    <path d="M719.295 629.154H664.638L660.505 570.445H723.429L719.295 629.154Z" fill="#F0F0F0"/>
    <path d="M727.492 577.287H656.424L654.401 557.469H729.532L727.492 577.287Z" fill="#F5F5F5"/>
    <path d="M216.71 39.1777H118.958V156.806H216.71V39.1777Z" fill="#E0E0E0"/>
    <path d="M227.295 39.1777H126.318V156.806H227.295V39.1777Z" fill="#F5F5F5"/>
    <path d="M218.837 147.537V48.4465L134.776 48.4465V147.537H218.837Z" fill="white"/>
    <path d="M198.45 123.495V72.4498H155.146V123.495H198.45Z" fill="#F5F5F5"/>
    <path d="M715.127 52.8801H624.317V162.157H715.127V52.8801Z" fill="#E0E0E0"/>
    <path d="M724.963 52.8801H631.171V162.157H724.963V52.8801Z" fill="#F5F5F5"/>
    <path d="M717.115 153.538V61.4993L639.036 61.4993V153.538H717.115Z" fill="white"/>
    <path d="M678.067 134.217C691.523 134.217 702.431 122.263 702.431 107.519C702.431 92.7736 691.523 80.8204 678.067 80.8204C664.612 80.8204 653.704 92.7736 653.704 107.519C653.704 122.263 664.612 134.217 678.067 134.217Z" fill="#F5F5F5"/>
    <path d="M318.263 109.315H245.747V196.576H318.263V109.315Z" fill="#E0E0E0"/>
    <path d="M326.111 109.315H251.206V196.576H326.111V109.315Z" fill="#F5F5F5"/>
    <path d="M319.832 189.696V116.195H257.484V189.696H319.832Z" fill="white"/>
    <path d="M288.667 134.351L271.611 166.725H305.723L288.667 134.351Z" fill="#F5F5F5"/>
    <path d="M436 712C622.752 712 774.144 702.314 774.144 690.367C774.144 678.419 622.752 668.733 436 668.733C249.248 668.733 97.8555 678.419 97.8555 690.367C97.8555 702.314 249.248 712 436 712Z" fill="#F5F5F5"/>
    <path d="M609.092 207.221L591.791 199.576C591.791 199.576 568.962 245.194 562.422 247.507C553.528 250.641 535.111 259.356 524.194 260.884C522.712 262.796 520.287 268.739 520.514 270.899C535.181 276.269 567.41 269.14 574.317 263.522C590.03 250.775 609.092 207.221 609.092 207.221Z" fill="#E58A7B"/>
    <path d="M614.411 196.843C617.637 209.896 600.162 236.155 600.162 236.155L577.264 222.089C577.264 222.089 581.554 211.291 586.786 200.303C595.175 182.548 610.731 181.956 614.411 196.843Z" fill="#FC0B0D"/>
    <path opacity="0.2" d="M614.411 196.843C617.637 209.896 600.162 236.155 600.162 236.155L577.264 222.089C577.264 222.089 581.554 211.291 586.786 200.303C595.175 182.548 610.731 181.956 614.411 196.843Z" fill="black"/>
    <path opacity="0.2" d="M586.35 227.708L595.367 233.25L596.954 202.921C591.704 207.335 588.007 220.637 586.35 227.708Z" fill="black"/>
    <path d="M599.343 187.02C599.343 187.02 581.519 230.479 591.913 311.395H662.144C663.261 299.584 659.563 241.946 672.94 186.294C665.235 184.644 657.44 183.553 649.605 183.026C639.667 182.395 629.703 182.395 619.765 183.026C612.876 183.793 606.049 185.128 599.343 187.02Z" fill="#FC0B0D"/>
    <path opacity="0.2" d="M599.343 187.02C599.343 187.02 581.519 230.479 591.913 311.395H662.144C663.261 299.584 659.563 241.946 672.94 186.294C665.235 184.644 657.44 183.553 649.605 183.026C639.667 182.395 629.703 182.395 619.765 183.026C612.876 183.793 606.049 185.128 599.343 187.02Z" fill="black"/>
    <g style="mix-blend-mode:multiply">
    <path d="M583.054 692.086C582.949 694.15 609.58 695.813 642.524 695.813C675.469 695.813 702.291 694.15 702.396 692.086C702.501 690.022 675.887 688.379 642.926 688.379C609.964 688.379 583.176 690.042 583.054 692.086Z" fill="#E8ECF1"/>
    </g>
    <path d="M629.934 637.855L617.477 643.139L628.207 673.513L640.663 668.229L629.934 637.855Z" fill="#E58A7B"/>
    <path d="M685.479 677.39H672.347L667.533 644.08H680.666L685.479 677.39Z" fill="#E58A7B"/>
    <path d="M671.44 675.727H686.194C686.45 675.728 686.697 675.829 686.892 676.011C687.087 676.192 687.217 676.444 687.258 676.721L689.159 689.506C689.199 689.827 689.176 690.154 689.09 690.464C689.005 690.773 688.86 691.06 688.664 691.303C688.469 691.546 688.228 691.74 687.959 691.872C687.689 692.003 687.396 692.07 687.101 692.067C681.956 691.972 679.48 691.628 672.992 691.628C668.998 691.628 660.784 692.086 655.238 692.086C649.692 692.086 649.326 686.124 651.611 685.57C661.865 683.142 665.842 679.836 669.26 676.626C669.863 676.045 670.638 675.726 671.44 675.727Z" fill="#263238"/>
    <path d="M627.84 670.797L641.792 666.325C642.041 666.248 642.306 666.267 642.544 666.378C642.782 666.489 642.978 666.686 643.1 666.936L648.332 678.403C648.454 678.694 648.516 679.01 648.514 679.33C648.512 679.65 648.447 679.966 648.322 680.255C648.198 680.545 648.017 680.801 647.793 681.006C647.569 681.211 647.306 681.359 647.024 681.442C641.949 682.971 638.548 683.907 632.2 685.933C627.823 687.328 623.358 689.602 619.033 691.112C616.033 692.163 608.987 692.201 605.342 692.201C599.953 692.201 598.75 685.971 601.07 685.684C606.912 684.977 607.697 685.302 610.923 683.525C616.202 680.996 620.987 677.375 625.015 672.861C625.774 671.912 626.749 671.2 627.84 670.797Z" fill="#263238"/>
    <path d="M526.391 260.808L511.951 254.177L506.004 271.721C511.923 272.708 517.944 272.708 523.862 271.721L526.391 260.808Z" fill="#E58A7B"/>
    <path d="M501.208 253.718L500.824 265.376L506.004 271.682L511.951 254.138L501.208 253.718Z" fill="#E58A7B"/>
    <path d="M631.643 640.434L619.147 645.72L624.681 661.427L637.176 656.141L631.643 640.434Z" fill="#CF6F64"/>
    <path d="M680.666 644.08H667.533L670.027 661.26H683.16L680.666 644.08Z" fill="#CF6F64"/>
    <path opacity="0.2" d="M589.681 289.513C589.943 292.972 590.239 296.507 590.623 300.139L642.838 281.563C650.992 278.914 658.079 273.299 662.929 265.643C663.138 260.541 663.4 255.17 663.801 249.571C663.975 246.857 664.185 244.067 664.411 241.238C664.638 238.41 664.952 235.276 665.283 232.256L589.681 289.513Z" fill="black"/>
    <path d="M606.738 226.829L604.994 226.599C606.023 217.044 612.528 209.514 619.382 209.705V211.616C613.382 211.483 607.662 218.267 606.738 226.829Z" fill="white"/>
    <path d="M616.033 244.468H615.736V242.557C621.735 242.806 627.369 235.945 628.293 227.402L630.037 227.631C629.113 236.977 622.817 244.468 616.033 244.468Z" fill="white"/>
    <path d="M648.628 146.199C646.169 156.73 643.274 176.013 649.605 183.026C649.605 183.026 645.175 193.709 627.334 193.709C611.028 193.709 619.765 183.026 619.765 183.026C630.613 180.236 630.805 171.56 629.375 163.342L648.628 146.199Z" fill="#E58A7B"/>
    <path d="M640.78 153.194L629.392 163.342C629.745 165.23 629.949 167.149 630.002 169.075C633.333 172.706 640.013 163.514 640.693 158.813C641.039 156.962 641.068 155.057 640.78 153.194Z" fill="#CF6F64"/>
    <path d="M609.807 146.066C610.599 147.571 611.667 148.88 612.942 149.913C614.217 150.946 615.673 151.679 617.219 152.067C621.405 153.079 623.497 148.856 622.346 144.613C621.317 140.791 617.882 135.65 613.626 136.529C612.715 136.735 611.862 137.177 611.138 137.819C610.414 138.46 609.842 139.282 609.468 140.216C609.094 141.15 608.929 142.168 608.988 143.186C609.047 144.204 609.328 145.191 609.807 146.066Z" fill="#CF6F64"/>
    <path d="M616.73 112.373C610.208 115.641 607.906 144.04 616.103 148.244C624.299 152.449 629.078 106.162 616.73 112.373Z" fill="#263238"/>
    <path d="M650.617 130.356C649.047 144.613 648.873 153.003 641.897 160.303C639.735 162.726 637.004 164.447 634.006 165.276C631.008 166.105 627.86 166.01 624.908 165.002C621.956 163.993 619.316 162.111 617.279 159.562C615.242 157.013 613.887 153.896 613.365 150.557C611.255 137.752 614.167 116.596 627.212 110.92C629.953 109.596 632.967 109.098 635.943 109.48C638.918 109.862 641.746 111.108 644.134 113.091C646.521 115.074 648.381 117.72 649.521 120.756C650.661 123.792 651.039 127.106 650.617 130.356Z" fill="#E58A7B"/>
    <path d="M629.183 119.75C638.845 117.055 645.943 115.221 643.396 124.031C640.03 135.803 635.984 147.193 641.408 147.709C644.722 148.034 659.371 141.231 657.505 134.332C655.883 128.331 662.737 126.687 663.958 123.648C668.475 112.641 655.552 114.093 657.854 107.404C660.156 100.715 647.39 89.9366 640.414 95.3068C629.061 103.983 609.58 103.849 619.818 89.5735C627.16 79.3874 614.062 81.4704 614.062 81.4704C614.062 81.4704 621.98 86.6113 608.656 94.5615C594.564 103.047 607.487 125.846 629.183 119.75Z" fill="#263238"/>
    <path d="M655.744 146.066C653.836 149.09 650.97 151.229 647.704 152.067C643.396 153.079 641.739 148.856 643.361 144.613C644.809 140.791 648.785 135.65 652.901 136.529C657.017 137.408 657.958 142.32 655.744 146.066Z" fill="#E58A7B"/>
    <path d="M591.914 311.395C591.914 311.395 580.124 427.017 579.2 470.895C578.258 516.533 619.155 658.929 619.155 658.929L640.083 649.373C640.083 649.373 615.667 519.265 619.155 474.45C622.852 425.583 638.13 311.471 638.13 311.471L591.914 311.395Z" fill="#FC0B0D"/>
    <path opacity="0.2" d="M621.213 343.138C611.813 364.505 618.143 406.759 623.236 431.794C625.172 414.117 627.474 394.929 629.654 377.175C629.444 349.885 627.509 328.805 621.213 343.138Z" fill="black"/>
    <path d="M639.158 641.805C639.263 641.805 641.635 649.106 641.635 649.106L617.498 660.228L613.696 652.469L639.158 641.805Z" fill="#FC0B0D"/>
    <path d="M616.835 311.395C616.835 311.395 625.851 421.36 631.816 462.544C638.373 507.665 664.08 657.935 664.08 657.935H688.13C688.13 657.935 673.724 511.315 671.004 466.634C668.039 418.168 662.144 311.395 662.144 311.395H616.835Z" fill="#FC0B0D"/>
    <path d="M688.496 651.074C688.601 651.074 689.299 658.432 689.299 658.432H662.86L660.976 649.985L688.496 651.074Z" fill="#FC0B0D"/>
    <path opacity="0.2" d="M679.288 642.36C679.233 642.36 679.18 642.34 679.139 642.301C679.097 642.262 679.069 642.209 679.061 642.15C678.922 640.812 665.929 508.372 663.487 468.239C660.836 424.704 655.5 328.136 655.447 327.162C655.445 327.13 655.448 327.098 655.458 327.068C655.467 327.038 655.482 327.01 655.502 326.987C655.522 326.964 655.546 326.945 655.572 326.932C655.599 326.92 655.628 326.913 655.657 326.913C655.714 326.913 655.769 326.937 655.811 326.979C655.853 327.022 655.879 327.08 655.883 327.143C655.883 328.117 661.272 424.609 663.923 468.22C666.365 508.353 679.357 640.697 679.48 642.13C679.485 642.162 679.483 642.194 679.476 642.225C679.469 642.257 679.456 642.286 679.438 642.311C679.42 642.336 679.397 642.357 679.371 642.372C679.345 642.387 679.317 642.396 679.288 642.398V642.36Z" fill="black"/>
    <path d="M630.665 134.331C630.665 135.497 630.003 136.434 629.305 136.434C628.607 136.434 628.102 135.497 628.171 134.331C628.241 133.166 628.834 132.229 629.532 132.229C630.229 132.229 630.735 133.185 630.665 134.331Z" fill="#263238"/>
    <path d="M618.701 134.331C618.701 135.497 618.021 136.434 617.341 136.434C616.661 136.434 616.138 135.497 616.19 134.331C616.242 133.166 616.87 132.229 617.568 132.229C618.265 132.229 618.771 133.185 618.701 134.331Z" fill="#263238"/>
    <path d="M622.469 134.924C621.013 138.484 619.136 141.818 616.888 144.843C618.632 146.754 621.893 145.875 621.893 145.875L622.469 134.924Z" fill="#DF5753"/>
    <path d="M622.783 150.748C622.742 150.748 622.702 150.739 622.665 150.721C622.628 150.704 622.594 150.678 622.567 150.646C622.539 150.614 622.517 150.576 622.503 150.534C622.49 150.492 622.484 150.448 622.486 150.404C622.491 150.311 622.527 150.223 622.589 150.159C622.651 150.095 622.733 150.06 622.817 150.06C624.151 150.07 625.47 149.752 626.678 149.131C627.885 148.509 628.949 147.599 629.793 146.467C629.854 146.409 629.931 146.377 630.011 146.377C630.092 146.377 630.169 146.409 630.229 146.467C630.286 146.531 630.318 146.617 630.318 146.706C630.318 146.795 630.286 146.88 630.229 146.945C629.326 148.148 628.188 149.113 626.9 149.772C625.611 150.43 624.204 150.763 622.783 150.748Z" fill="#263238"/>
    <path d="M632.793 130.815C632.709 130.862 632.617 130.886 632.523 130.886C632.429 130.886 632.336 130.862 632.252 130.815C631.6 130.353 630.857 130.065 630.085 129.976C629.312 129.886 628.531 129.997 627.805 130.299C627.734 130.338 627.657 130.361 627.578 130.366C627.499 130.372 627.42 130.36 627.345 130.331C627.27 130.303 627.202 130.258 627.143 130.2C627.084 130.142 627.036 130.072 627.003 129.993C626.938 129.823 626.937 129.632 626.998 129.461C627.06 129.289 627.181 129.151 627.334 129.076C628.246 128.668 629.234 128.507 630.215 128.607C631.196 128.706 632.14 129.064 632.967 129.649C633.034 129.699 633.091 129.763 633.135 129.837C633.18 129.911 633.21 129.994 633.224 130.081C633.239 130.169 633.238 130.258 633.221 130.345C633.203 130.431 633.171 130.513 633.124 130.586C633.036 130.695 632.921 130.775 632.793 130.815Z" fill="#263238"/>
    <path d="M614.079 126.993C613.986 126.968 613.902 126.915 613.835 126.84C613.777 126.778 613.731 126.703 613.7 126.621C613.668 126.539 613.652 126.451 613.652 126.362C613.652 126.273 613.668 126.185 613.7 126.103C613.731 126.021 613.777 125.947 613.835 125.884C614.504 125.063 615.336 124.422 616.268 124.01C617.2 123.599 618.205 123.43 619.207 123.515C619.287 123.528 619.364 123.56 619.433 123.607C619.501 123.654 619.56 123.717 619.606 123.79C619.652 123.864 619.683 123.947 619.699 124.034C619.714 124.121 619.713 124.211 619.695 124.298C619.658 124.475 619.563 124.631 619.428 124.737C619.293 124.842 619.128 124.89 618.963 124.871C618.17 124.817 617.377 124.96 616.643 125.291C615.908 125.623 615.253 126.133 614.725 126.783C614.645 126.879 614.543 126.95 614.429 126.987C614.315 127.024 614.194 127.026 614.079 126.993Z" fill="#263238"/>
    <path d="M679.689 205.1L661.551 199.806C661.551 199.806 643.762 247.794 637.467 250.909C628.921 255.189 607.278 270.02 598.07 277.033C597.564 279.422 597.965 285.748 599.116 287.487C614.812 284.353 644.861 271.682 651.139 265.242C665.458 250.546 679.689 205.1 679.689 205.1Z" fill="#E58A7B"/>
    <path d="M667.028 678.25C666.142 678.327 665.261 678.063 664.534 677.505C664.309 677.282 664.141 677 664.046 676.685C663.951 676.37 663.933 676.033 663.993 675.708C664.004 675.505 664.065 675.309 664.169 675.141C664.274 674.973 664.418 674.839 664.586 674.753C666.051 673.931 670.149 676.778 670.62 677.103C670.672 677.138 670.712 677.191 670.734 677.253C670.756 677.315 670.759 677.383 670.742 677.447C670.727 677.514 670.697 677.575 670.654 677.626C670.612 677.676 670.558 677.713 670.498 677.734C669.361 678.04 668.198 678.213 667.028 678.25ZM665.284 675.269C665.151 675.237 665.014 675.237 664.882 675.269C664.816 675.306 664.76 675.364 664.723 675.435C664.686 675.506 664.668 675.588 664.673 675.67C664.627 675.892 664.634 676.124 664.696 676.342C664.757 676.56 664.869 676.757 665.022 676.912C665.702 677.581 667.411 677.658 669.661 677.18C668.321 676.213 666.813 675.562 665.231 675.269H665.284Z" fill="#FC0B0D"/>
    <path d="M670.411 677.734C670.365 677.75 670.317 677.75 670.271 677.734C668.963 676.931 666.504 673.778 666.871 672.173C666.925 671.918 667.056 671.691 667.243 671.529C667.43 671.366 667.661 671.276 667.899 671.275C668.134 671.24 668.372 671.262 668.597 671.338C668.823 671.414 669.031 671.542 669.207 671.714C670.655 673.071 670.742 677.237 670.742 677.448C670.751 677.51 670.74 677.574 670.711 677.63C670.683 677.685 670.639 677.729 670.585 677.753C670.527 677.766 670.466 677.76 670.411 677.734ZM668.074 671.905H667.952C667.551 671.905 667.498 672.154 667.481 672.249C667.272 673.186 668.824 675.575 670.114 676.702C670.108 675.088 669.652 673.514 668.806 672.192C668.604 671.999 668.342 671.896 668.074 671.905Z" fill="#FC0B0D"/>
    <path d="M620.724 675.861C619.657 676.269 618.495 676.269 617.428 675.861C617.186 675.718 616.98 675.509 616.831 675.255C616.682 675.001 616.593 674.71 616.573 674.409C616.551 674.22 616.574 674.028 616.638 673.851C616.702 673.674 616.806 673.517 616.94 673.396C618.335 672.02 624.038 673.396 624.683 673.664C624.744 673.681 624.799 673.721 624.837 673.776C624.875 673.832 624.894 673.9 624.892 673.969C624.895 674.041 624.878 674.112 624.844 674.173C624.81 674.234 624.76 674.283 624.701 674.313C623.416 674.949 622.086 675.466 620.724 675.861ZM617.881 673.587C617.682 673.631 617.496 673.73 617.341 673.874C617.285 673.919 617.243 673.981 617.218 674.052C617.193 674.123 617.187 674.201 617.201 674.275C617.213 674.476 617.27 674.67 617.367 674.84C617.465 675.011 617.6 675.151 617.759 675.25C618.684 675.785 620.829 675.364 623.602 674.084C621.734 673.568 619.8 673.4 617.881 673.587Z" fill="#FC0B0D"/>
    <path d="M624.649 674.313H624.509C622.765 673.969 619.277 671.771 619.172 670.128C619.172 669.746 619.329 669.211 620.166 668.905C620.449 668.794 620.749 668.748 621.049 668.767C621.349 668.787 621.642 668.873 621.91 669.019C623.794 670.032 624.788 673.702 624.84 673.874C624.853 673.931 624.851 673.992 624.836 674.049C624.821 674.106 624.792 674.157 624.753 674.198C624.727 674.245 624.691 674.285 624.649 674.313ZM620.515 669.478H620.341C619.8 669.688 619.8 669.937 619.8 670.013C619.8 671.007 622.329 672.822 624.09 673.434C623.685 671.899 622.826 670.555 621.649 669.612C621.299 669.417 620.895 669.369 620.515 669.478Z" fill="#FC0B0D"/>
    <path d="M599.552 275.906L581.362 285.079L579.252 290.813L585.967 295.762C585.967 295.762 598.523 294.272 602.099 285.423L599.552 275.906Z" fill="#E58A7B"/>
    <path d="M600.32 287.812C599.913 283.982 598.759 280.293 596.937 276.995L599.814 274.625C601.979 278.425 603.36 282.697 603.86 287.143L600.32 287.812Z" fill="#263238"/>
    <path d="M603.424 278.62C603.809 279.282 603.998 280.059 603.965 280.844C603.933 281.628 603.68 282.383 603.243 283.005C602.805 283.627 602.203 284.086 601.519 284.319C600.835 284.553 600.101 284.55 599.419 284.311C598.736 284.072 598.137 283.608 597.703 282.983C597.27 282.358 597.023 281.601 596.995 280.816C596.968 280.031 597.162 279.256 597.551 278.597C597.94 277.937 598.505 277.424 599.169 277.129C599.914 276.713 600.779 276.636 601.576 276.915C602.373 277.194 603.037 277.807 603.424 278.62Z" fill="#263238"/>
    <path d="M569.067 292.494L571.491 295.17L587.815 287.525L581.362 285.079L569.067 292.494Z" fill="#E58A7B"/>
    <path opacity="0.2" d="M639.158 641.805C639.263 641.805 641.635 649.106 641.635 649.106L617.498 660.228L613.696 652.469L639.158 641.805Z" fill="black"/>
    <path opacity="0.2" d="M688.496 651.074C688.601 651.074 689.299 658.432 689.299 658.432H662.86L660.976 649.985L688.496 651.074Z" fill="black"/>
    <path d="M684.415 199.595C689.211 216.547 670.463 239.729 670.463 239.729L644.565 228.147C647.635 218.349 651.174 208.736 655.168 199.347C663.121 180.561 679.567 182.491 684.415 199.595Z" fill="#FC0B0D"/>
    <path opacity="0.2" d="M684.415 199.595C689.211 216.547 670.463 239.729 670.463 239.729L644.565 228.147C647.635 218.349 651.174 208.736 655.168 199.347C663.121 180.561 679.567 182.491 684.415 199.595Z" fill="black"/>
    <path d="M427.07 29.7559H415.926V31.7243H427.07V29.7559Z" fill="#FC0B0D"/>
    <path d="M571.331 107.665L569.983 140.464L571.777 140.553L573.126 107.753L571.331 107.665Z" fill="#FC0B0D"/>
    <path d="M567.864 38.585H362.072L342.923 508.181H548.715L567.864 38.585Z" fill="#FC0B0D"/>
    <path opacity="0.56" d="M561.725 45.0448H355.933L336.784 514.641H542.576L561.725 45.0448Z" fill="#FAFAFA"/>
    <path opacity="0.07" d="M555.586 51.4852H349.794L330.628 521.081H536.42L555.586 51.4852Z" fill="#FC0B0D"/>
    <path d="M532.164 256.298H356.509L355.044 292.227H530.699L532.164 256.298Z" fill="white"/>
    <path d="M453.109 230.077H357.573L356.927 246.15H452.464L453.109 230.077Z" fill="#FC0B0D"/>
    <path d="M528.205 353.267H352.549L351.084 389.196H526.74L528.205 353.267Z" fill="white"/>
    <path opacity="0.47" d="M495.994 437.719H377.873L376.111 480.776H494.232L495.994 437.719Z" fill="#FC0B0D"/>
    <path d="M488.093 487.465H369.972C369.921 487.479 369.867 487.479 369.815 487.465C369.798 487.409 369.798 487.348 369.815 487.293L371.559 444.216C371.559 444.187 371.565 444.158 371.575 444.131C371.586 444.104 371.602 444.08 371.621 444.061C371.641 444.041 371.664 444.026 371.69 444.016C371.715 444.007 371.742 444.004 371.768 444.006H489.89C489.911 443.994 489.935 443.988 489.959 443.988C489.984 443.988 490.007 443.994 490.029 444.006C490.041 444.029 490.048 444.056 490.048 444.083C490.048 444.109 490.041 444.136 490.029 444.159L488.32 487.331C488.299 487.376 488.266 487.413 488.226 487.436C488.185 487.46 488.139 487.47 488.093 487.465ZM370.181 487.006H487.884L489.628 444.388H371.925L370.181 487.006Z" fill="white"/>
    <path d="M432.477 327.047H353.614L352.968 343.138H431.815L432.477 327.047Z" fill="#FC0B0D"/>
    <path d="M493.744 140.237C493.293 150.693 489.9 160.74 484.03 168.999C479.684 175.237 474.093 180.301 467.683 183.803C461.274 187.304 454.218 189.15 447.057 189.199C441.27 189.247 435.535 187.997 430.205 185.525C424.876 183.052 420.065 179.41 416.068 174.823C412.072 170.236 408.975 164.801 406.968 158.853C404.961 152.905 404.087 146.569 404.399 140.237C405.012 127.096 410.183 114.708 418.855 105.607C427.527 96.506 439.044 91.3789 451.051 91.2742C456.842 91.2151 462.583 92.4579 467.919 94.926C473.255 97.3941 478.072 101.035 482.074 105.624C486.075 110.212 489.175 115.652 491.182 121.605C493.189 127.558 494.061 133.899 493.744 140.237Z" fill="white"/>
    <path d="M497.947 101.518C497.833 104.298 496.931 106.97 495.366 109.162C494.208 110.819 492.72 112.164 491.015 113.095C489.31 114.025 487.434 114.517 485.53 114.532C483.684 114.544 481.865 114.061 480.229 113.125C478.594 112.189 477.192 110.829 476.147 109.162C474.763 106.91 474.078 104.23 474.194 101.518C474.362 98.0287 475.739 94.7417 478.043 92.3269C480.347 89.912 483.405 88.5513 486.594 88.5221C488.132 88.5067 489.656 88.8366 491.074 89.4915C492.491 90.1464 493.771 91.1123 494.834 92.3298C495.898 93.5473 496.723 94.9906 497.258 96.5708C497.794 98.1509 498.028 99.8344 497.947 101.518Z" fill="#FC0B0D"/>
    <path d="M375.431 274.262C375.347 275.802 374.733 277.25 373.714 278.314C372.695 279.378 371.345 279.979 369.937 279.995C369.257 280.004 368.583 279.86 367.956 279.572C367.329 279.284 366.763 278.858 366.292 278.321C365.822 277.784 365.456 277.146 365.219 276.448C364.982 275.75 364.879 275.006 364.914 274.262C364.99 272.719 365.601 271.266 366.622 270.2C367.643 269.134 368.998 268.536 370.408 268.529C371.087 268.523 371.76 268.669 372.386 268.958C373.011 269.246 373.577 269.672 374.047 270.209C374.517 270.746 374.883 271.382 375.12 272.079C375.358 272.776 375.464 273.519 375.431 274.262Z" fill="#263238"/>
    <path d="M398.94 274.262C398.861 275.804 398.248 277.254 397.228 278.319C396.208 279.384 394.856 279.983 393.447 279.996C392.769 280.002 392.096 279.856 391.471 279.567C390.847 279.278 390.282 278.851 389.813 278.314C389.345 277.777 388.981 277.141 388.745 276.444C388.509 275.747 388.406 275.004 388.441 274.262C388.517 272.722 389.125 271.272 390.143 270.207C391.16 269.141 392.51 268.541 393.918 268.529C394.597 268.52 395.272 268.664 395.898 268.952C396.525 269.24 397.092 269.666 397.562 270.203C398.033 270.741 398.398 271.378 398.635 272.076C398.872 272.774 398.976 273.518 398.94 274.262Z" fill="#263238"/>
    <path d="M422.466 274.262C422.387 275.804 421.774 277.254 420.754 278.319C419.734 279.384 418.382 279.983 416.973 279.996C416.294 280.002 415.621 279.856 414.995 279.567C414.369 279.278 413.804 278.852 413.334 278.315C412.864 277.778 412.498 277.142 412.26 276.445C412.022 275.748 411.917 275.005 411.95 274.262C412.03 272.721 412.642 271.27 413.662 270.205C414.683 269.14 416.035 268.541 417.444 268.529C418.123 268.52 418.798 268.664 419.424 268.952C420.051 269.24 420.618 269.666 421.088 270.203C421.559 270.741 421.924 271.378 422.161 272.076C422.398 272.774 422.502 273.518 422.466 274.262Z" fill="#263238"/>
    <path d="M371.472 371.232C371.388 372.772 370.775 374.219 369.755 375.283C368.736 376.347 367.386 376.948 365.978 376.965C365.299 376.971 364.626 376.825 364.001 376.536C363.375 376.247 362.81 375.821 362.339 375.284C361.869 374.748 361.504 374.111 361.266 373.414C361.028 372.718 360.922 371.975 360.956 371.232C361.035 369.69 361.648 368.239 362.668 367.175C363.688 366.11 365.04 365.51 366.449 365.498C367.128 365.492 367.801 365.638 368.427 365.927C369.053 366.216 369.618 366.642 370.088 367.179C370.559 367.715 370.924 368.352 371.162 369.049C371.4 369.746 371.505 370.488 371.472 371.232Z" fill="#263238"/>
    <path d="M394.981 371.232C394.902 372.77 394.292 374.218 393.275 375.282C392.259 376.346 390.911 376.948 389.505 376.965C388.825 376.974 388.151 376.83 387.524 376.542C386.897 376.254 386.331 375.828 385.86 375.291C385.389 374.753 385.024 374.116 384.787 373.418C384.55 372.719 384.446 371.975 384.482 371.232C384.562 369.69 385.174 368.239 386.195 367.175C387.215 366.11 388.567 365.51 389.976 365.498C390.654 365.492 391.326 365.638 391.951 365.927C392.576 366.216 393.14 366.642 393.609 367.18C394.078 367.717 394.442 368.353 394.678 369.05C394.914 369.747 395.017 370.489 394.981 371.232Z" fill="#263238"/>
    <path d="M418.56 371.231C418.481 372.773 417.868 374.224 416.848 375.288C415.828 376.353 414.476 376.953 413.067 376.965C412.388 376.968 411.717 376.82 411.092 376.53C410.467 376.24 409.903 375.815 409.433 375.278C408.964 374.742 408.598 374.107 408.359 373.411C408.121 372.716 408.013 371.974 408.044 371.231C408.128 369.691 408.741 368.243 409.761 367.179C410.78 366.116 412.13 365.515 413.538 365.498C414.217 365.489 414.891 365.633 415.518 365.921C416.145 366.209 416.712 366.635 417.182 367.172C417.653 367.71 418.018 368.347 418.255 369.045C418.492 369.743 418.596 370.488 418.56 371.231Z" fill="#263238"/>
    <path d="M442.034 371.232C441.95 372.772 441.337 374.219 440.317 375.283C439.298 376.347 437.948 376.948 436.54 376.965C435.862 376.968 435.19 376.82 434.566 376.531C433.941 376.241 433.377 375.815 432.907 375.278C432.437 374.742 432.072 374.107 431.833 373.411C431.594 372.716 431.487 371.974 431.518 371.232C431.601 369.692 432.215 368.244 433.234 367.18C434.254 366.116 435.603 365.515 437.011 365.498C437.69 365.492 438.363 365.638 438.989 365.927C439.615 366.216 440.18 366.642 440.65 367.179C441.12 367.715 441.486 368.352 441.724 369.049C441.962 369.746 442.067 370.488 442.034 371.232Z" fill="#263238"/>
    <path d="M465.648 371.232C465.564 372.772 464.951 374.219 463.931 375.283C462.912 376.347 461.562 376.948 460.154 376.965C459.475 376.974 458.801 376.83 458.174 376.542C457.547 376.254 456.98 375.828 456.51 375.291C456.039 374.753 455.674 374.116 455.437 373.418C455.2 372.719 455.096 371.975 455.132 371.232C455.211 369.69 455.824 368.239 456.844 367.175C457.864 366.11 459.216 365.51 460.625 365.498C461.304 365.492 461.977 365.638 462.603 365.927C463.229 366.216 463.794 366.642 464.264 367.179C464.735 367.715 465.1 368.352 465.338 369.049C465.576 369.746 465.681 370.488 465.648 371.232Z" fill="#263238"/>
    <path d="M462.079 137.687C469.378 129.864 469.766 117.326 462.944 109.682C456.122 102.038 444.675 102.182 437.375 110.004C430.075 117.826 429.688 130.365 436.51 138.009C443.332 145.653 454.779 145.509 462.079 137.687Z" fill="#FC0B0D"/>
    <path d="M484.03 168.999C479.685 175.237 474.093 180.301 467.684 183.803C461.275 187.304 454.219 189.15 447.057 189.199C440.113 189.264 433.261 187.455 427.105 183.932C420.949 180.409 415.679 175.281 411.759 168.999C420.235 159.749 433.646 153.71 448.505 153.71C463.364 153.71 476.304 159.749 484.03 168.999Z" fill="#FC0B0D"/>
    <path opacity="0.1" d="M462.079 137.687C469.378 129.864 469.766 117.326 462.944 109.682C456.122 102.038 444.675 102.182 437.375 110.004C430.075 117.826 429.688 130.365 436.51 138.009C443.332 145.653 454.779 145.509 462.079 137.687Z" fill="white"/>
    <path opacity="0.1" d="M484.03 168.999C479.685 175.237 474.093 180.301 467.684 183.803C461.275 187.304 454.219 189.15 447.057 189.199C440.113 189.264 433.261 187.455 427.105 183.932C420.949 180.409 415.679 175.281 411.759 168.999C420.235 159.749 433.646 153.71 448.505 153.71C463.364 153.71 476.304 159.749 484.03 168.999Z" fill="white"/>
    <path d="M227.435 300.884C225.778 304.859 224.034 309.235 222.516 313.478C220.999 317.721 219.447 322.097 218.104 326.454C215.362 335.042 213.274 343.863 211.861 352.828L211.477 355.637C211.44 356.119 211.482 356.604 211.599 357.07C212.011 358.654 212.659 360.152 213.517 361.504C215.757 365.003 218.355 368.209 221.261 371.06C224.324 374.182 227.538 377.123 230.888 379.87C234.236 382.698 237.759 385.45 241.23 388.049L237.968 394.757C229.681 390.8 221.815 385.859 214.512 380.023C210.615 376.909 207.098 373.261 204.048 369.168C202.239 366.731 200.829 363.97 199.879 361.007C199.327 359.156 199.045 357.221 199.042 355.274C199.042 354.815 199.042 354.146 199.042 353.821V352.885L199.217 350.974C200.216 341.017 202.127 331.196 204.92 321.658C206.28 316.956 207.727 312.274 209.384 307.707C211.041 303.139 212.75 298.667 214.86 294.023L227.435 300.884Z" fill="#E58A7B"/>
    <path d="M238.771 386.864L251.101 380.023L247.909 394.853C247.909 394.853 239.451 397.452 235.527 392.942L238.771 386.864Z" fill="#E58A7B"/>
    <path d="M262.384 382.45L259.106 394.719L247.909 394.853L251.101 380.023L262.384 382.45Z" fill="#E58A7B"/>
    <path d="M279.789 229.332C280.449 231.98 281.367 234.543 282.528 236.976C282.189 237.398 281.752 237.711 281.264 237.882C280.776 238.054 280.254 238.078 279.755 237.951L279.789 229.332Z" fill="#DF5753"/>
    <path d="M279.423 229.447C280.146 229.447 280.731 228.463 280.731 227.249C280.731 226.035 280.146 225.051 279.423 225.051C278.701 225.051 278.115 226.035 278.115 227.249C278.115 228.463 278.701 229.447 279.423 229.447Z" fill="#263238"/>
    <path d="M279.04 225.128L281.691 224.306C281.691 224.306 280.4 226.561 279.04 225.128Z" fill="#263238"/>
    <path d="M245.729 243.36C247.316 252.246 248.903 268.548 243.218 274.492C243.218 274.492 245.45 283.512 260.536 283.512C277.121 283.512 268.454 274.492 268.454 274.492C259.402 272.122 259.629 264.764 261.216 257.846L245.729 243.36Z" fill="#E58A7B"/>
    <path d="M241.317 223.102C242.154 237.951 242.224 244.258 249.06 251.883C259.367 263.35 275.831 258.992 279.057 244.239C281.969 230.861 280.121 208.845 266.849 202.94C263.936 201.625 260.765 201.146 257.635 201.548C254.506 201.951 251.522 203.221 248.966 205.24C246.41 207.258 244.366 209.958 243.027 213.084C241.689 216.209 241.1 219.657 241.317 223.102Z" fill="#E58A7B"/>
    <path d="M242.66 206.399C235.858 209.113 226.789 207.087 230.347 230.077C234.114 254.425 228.324 262.432 228.324 262.432C228.324 262.432 254.118 268.452 280.452 262.069C280.452 262.069 272.412 246.666 274.662 235.314C277.54 220.981 275.272 215.687 275.272 215.687C275.272 215.687 252.217 202.577 242.66 206.399Z" fill="#263238"/>
    <path d="M271.436 230.842C271.443 233.665 272.181 236.429 273.563 238.811C275.412 241.907 277.592 240.722 278.133 237.435C278.621 234.549 278.255 229.447 275.9 227.459C273.546 225.472 271.471 227.421 271.436 230.842Z" fill="#E58A7B"/>
    <path d="M236.748 208.903C234.794 202.883 244.107 193.614 263.815 197.436C283.522 201.258 284.376 219.242 284.376 219.242L280.4 214.043L280.574 219.509L260.327 223.771L236.748 208.903Z" fill="#263238"/>
    <path d="M238.422 275.504C238.306 274.632 238.505 273.744 238.977 273.03C239.449 272.316 240.158 271.832 240.951 271.682C247.09 270.574 261.042 268.319 268.052 269.389C273.284 270.191 274.645 273.517 274.871 276.25C274.907 276.728 274.849 277.209 274.7 277.661C274.552 278.113 274.317 278.525 274.011 278.869C273.706 279.213 273.336 279.481 272.928 279.655C272.52 279.83 272.082 279.907 271.645 279.881L241.334 278.39C240.62 278.351 239.94 278.042 239.409 277.516C238.878 276.99 238.529 276.279 238.422 275.504Z" fill="#FC0B0D"/>
    <path opacity="0.6" d="M238.422 275.504C238.306 274.632 238.505 273.744 238.977 273.03C239.449 272.316 240.158 271.832 240.951 271.682C247.09 270.574 261.042 268.319 268.052 269.389C273.284 270.191 274.645 273.517 274.871 276.25C274.907 276.728 274.849 277.209 274.7 277.661C274.552 278.113 274.317 278.525 274.011 278.869C273.706 279.213 273.336 279.481 272.928 279.655C272.52 279.83 272.082 279.907 271.645 279.881L241.334 278.39C240.62 278.351 239.94 278.042 239.409 277.516C238.878 276.99 238.529 276.279 238.422 275.504Z" fill="black"/>
    <path d="M255.949 609.374L267.198 617.935L286.016 589.976L274.767 581.433L255.949 609.374Z" fill="#E58A7B"/>
    <path d="M229.719 608.82L241.596 616.235L258.251 586.67L246.375 579.255L229.719 608.82Z" fill="#E58A7B"/>
    <path d="M285.998 589.976L276.302 604.386L265.053 595.843L274.75 581.433L285.998 589.976Z" fill="#CF6F64"/>
    <path d="M246.357 579.255L258.251 586.689L249.671 601.921L237.777 594.486L246.357 579.255Z" fill="#CF6F64"/>
    <path d="M265.437 368.843C265.437 368.843 309.351 429.482 301.101 487.484C294.457 534.325 255.914 597.754 255.914 597.754L237.794 587.893C250.566 559.848 261.466 530.825 270.407 501.053C273.164 491.809 273.969 482 272.76 472.366C271.552 462.732 268.362 453.525 263.431 445.44C241.178 409.836 205.53 431.03 229.51 368.843H265.437Z" fill="#FC0B0D"/>
    <path opacity="0.6" d="M265.437 368.843C265.437 368.843 309.351 429.482 301.101 487.484C294.457 534.325 255.914 597.754 255.914 597.754L237.794 587.893C250.566 559.848 261.466 530.825 270.407 501.053C273.164 491.809 273.969 482 272.76 472.366C271.552 462.732 268.362 453.525 263.431 445.44C241.178 409.836 205.53 431.03 229.51 368.843H265.437Z" fill="black"/>
    <path opacity="0.4" d="M286.975 407.791L280.592 400.834C280.592 401.389 292.957 485.038 296.427 508.544C298.475 501.677 300.044 494.65 301.119 487.522C305.2 459.066 296.671 429.998 286.975 407.791Z" fill="black"/>
    <path d="M285.039 368.843C285.039 368.843 337.917 445.057 339.417 490.752C340.655 528.974 281.865 603.029 281.865 603.029L264.774 590.913C264.774 590.913 299.183 538.319 307.851 495.358C304.502 452.778 233.696 368.843 233.696 368.843H285.039Z" fill="#FC0B0D"/>
    <path opacity="0.6" d="M285.039 368.843C285.039 368.843 337.917 445.057 339.417 490.752C340.655 528.974 281.865 603.029 281.865 603.029L264.774 590.913C264.774 590.913 299.183 538.319 307.851 495.358C304.502 452.778 233.696 368.843 233.696 368.843H285.039Z" fill="black"/>
    <path d="M219.622 277.893C213.971 279.365 208.547 301.878 208.547 301.878L230.644 318.045C230.644 318.045 238.003 300.234 235.422 292.437C232.754 284.314 226.72 276.039 219.622 277.893Z" fill="#FC0B0D"/>
    <path opacity="0.2" d="M223.947 292.398L222.412 312.025L230.627 318.065C232.895 312.469 234.574 306.609 235.632 300.597L223.947 292.398Z" fill="black"/>
    <path d="M291.579 278.333C291.579 278.333 298.102 280.836 285.039 368.823H229.475C230.417 343.979 230.434 328.69 219.622 277.893C227.402 276.136 235.288 274.999 243.218 274.491C251.619 273.831 260.052 273.831 268.454 274.491C279.301 275.581 291.579 278.333 291.579 278.333Z" fill="#FC0B0D"/>
    <path d="M297.23 292.398C298.486 296.221 299.811 300.33 301.206 304.285C302.602 308.241 303.927 312.312 305.34 316.325L309.612 328.327L310.694 331.328L311.252 332.818L311.513 333.564C311.513 333.697 311.513 333.697 311.513 333.678C311.195 333.186 310.777 332.781 310.293 332.493C309.603 332.048 308.825 331.793 308.025 331.748C307.361 331.725 306.7 331.862 306.09 332.149C305.287 332.551 305.287 332.723 305.305 332.704C305.45 332.576 305.579 332.428 305.688 332.264C306.654 330.875 307.489 329.383 308.182 327.811C309.002 326.053 309.787 324.18 310.572 322.288C312.106 318.466 313.519 314.51 314.932 310.516C316.344 306.521 317.687 302.489 318.995 298.418L322.971 286.226L329.686 288.137C328.36 296.851 326.651 305.337 324.593 313.975C323.599 318.275 322.431 322.537 321.105 326.836C320.443 328.996 319.71 331.136 318.873 333.334C318.001 335.72 316.926 338.01 315.664 340.176C315.2 340.905 314.687 341.595 314.129 342.24C313.239 343.294 312.158 344.134 310.955 344.705C309.888 345.207 308.732 345.442 307.572 345.393C306.272 345.34 305.006 344.926 303.892 344.189C302.578 343.291 301.488 342.05 300.718 340.577C300.456 340.08 300.23 339.584 300.073 339.22L299.741 338.494L299.079 337.004L297.753 334.041C296.009 330.066 294.265 326.053 292.748 322.021C291.231 317.988 289.626 313.898 288.126 309.789C286.626 305.681 285.284 301.572 284.01 297.138L297.23 292.398Z" fill="#E58A7B"/>
    <path d="M291.579 278.333C298.259 280.072 305.775 301.705 305.775 301.705L285.911 320.224C285.911 320.224 273.058 296.641 275.656 288.863C278.36 280.76 282.859 276.058 291.579 278.333Z" fill="#FC0B0D"/>
    <path d="M326.128 279.384L333.104 273.001L337.952 281.276L334.377 288.175C334.377 288.175 328.691 293.908 323.669 290.984C322.871 289.021 322.68 286.826 323.124 284.732C323.568 282.639 324.622 280.761 326.128 279.384Z" fill="#E58A7B"/>
    <path d="M345.696 273.02L345.173 275.103L334.133 277.129L333.052 273.001L345.696 273.02Z" fill="#E58A7B"/>
    <path d="M283.225 604.003L263.309 589.9L266.884 583.096L289.26 598.175L283.225 604.003Z" fill="#FC0B0D"/>
    <path d="M249.392 615.241C247.644 615.007 245.965 614.354 244.474 613.33C244.412 613.306 244.359 613.262 244.321 613.204C244.283 613.146 244.263 613.076 244.263 613.005C244.263 612.933 244.283 612.864 244.321 612.806C244.359 612.747 244.412 612.703 244.474 612.68C245.014 612.489 249.706 610.903 251.066 612.126C251.219 612.265 251.335 612.447 251.403 612.651C251.47 612.856 251.486 613.077 251.45 613.292C251.425 613.636 251.321 613.967 251.147 614.255C250.973 614.542 250.735 614.777 250.456 614.935C250.129 615.13 249.764 615.235 249.392 615.241ZM245.468 613.139C247.648 614.362 249.392 614.801 250.229 614.343C250.411 614.232 250.565 614.072 250.674 613.878C250.784 613.684 250.847 613.462 250.857 613.234C250.857 612.928 250.857 612.795 250.7 612.718C249.967 612.068 247.351 612.565 245.433 613.139H245.468Z" fill="#263238"/>
    <path d="M244.596 613.463C244.504 613.462 244.416 613.421 244.352 613.349C244.326 613.296 244.312 613.237 244.312 613.177C244.312 613.117 244.326 613.058 244.352 613.005C244.352 612.833 245.485 608.686 247.264 607.749C247.491 607.636 247.738 607.577 247.988 607.577C248.238 607.577 248.485 607.636 248.712 607.749C248.957 607.834 249.169 608.006 249.314 608.238C249.459 608.47 249.53 608.749 249.514 609.03C249.392 610.75 246.2 613.119 244.735 613.521L244.596 613.463ZM247.979 608.246C247.81 608.252 247.643 608.298 247.491 608.38C246.41 608.953 245.52 611.189 245.084 612.546C246.619 611.839 248.729 609.966 248.799 608.915C248.799 608.743 248.799 608.533 248.398 608.342C248.267 608.265 248.126 608.213 247.979 608.189V608.246Z" fill="#263238"/>
    <path d="M274.279 623.497C272.308 623.497 269.57 620.726 268.07 619.025C268.032 618.966 268.011 618.896 268.011 618.824C268.011 618.752 268.032 618.682 268.07 618.624C268.105 618.562 268.154 618.512 268.212 618.478C268.27 618.444 268.336 618.429 268.402 618.432C269.099 618.432 275.151 619.426 276.005 621.299C276.096 621.467 276.144 621.658 276.144 621.853C276.144 622.048 276.096 622.24 276.005 622.407C275.877 622.699 275.684 622.95 275.443 623.138C275.202 623.325 274.921 623.442 274.628 623.478L274.279 623.497ZM269.221 619.292C271.419 621.624 273.354 622.923 274.453 622.771C274.646 622.743 274.829 622.664 274.987 622.541C275.145 622.418 275.273 622.254 275.36 622.064C275.399 621.998 275.42 621.922 275.42 621.844C275.42 621.766 275.399 621.689 275.36 621.624C274.907 620.592 271.68 619.713 269.221 619.292Z" fill="#263238"/>
    <path d="M269.413 619.197C269.022 619.209 268.63 619.177 268.245 619.101C268.191 619.092 268.14 619.068 268.097 619.031C268.054 618.995 268.021 618.946 268.001 618.891C267.975 618.835 267.961 618.773 267.961 618.709C267.961 618.646 267.975 618.584 268.001 618.528C268.105 618.394 270.46 615.279 272.692 615.069C273.324 615.015 273.95 615.234 274.436 615.68C275.116 616.33 275.081 616.903 274.907 617.267C274.471 618.566 271.454 619.197 269.413 619.197ZM268.96 618.49C270.913 618.604 274.035 617.897 274.436 616.961C274.436 616.961 274.575 616.655 274.122 616.235C273.942 616.063 273.731 615.933 273.503 615.854C273.275 615.775 273.034 615.749 272.797 615.776C271.293 616.236 269.954 617.19 268.96 618.509V618.49Z" fill="#263238"/>
    <path d="M245.066 611.4L230.277 606.813C230.022 606.728 229.748 606.75 229.506 606.873C229.265 606.997 229.074 607.213 228.969 607.482L223.981 619.77C223.864 620.085 223.809 620.423 223.82 620.763C223.831 621.103 223.907 621.436 224.044 621.741C224.18 622.046 224.374 622.316 224.613 622.533C224.852 622.75 225.13 622.909 225.429 623C230.661 624.491 233.172 624.911 239.677 626.956C243.688 628.179 249.409 630.453 254.937 632.173C260.466 633.893 262.314 627.988 260.169 626.727C250.473 621.108 249.705 617.171 247.054 612.967C246.58 612.205 245.876 611.651 245.066 611.4Z" fill="#FC0B0D"/>
    <path d="M268.471 616.789L255.844 607.233C255.63 607.063 255.366 606.984 255.103 607.012C254.839 607.04 254.594 607.173 254.414 607.386L246.043 617.248C245.839 617.503 245.687 617.802 245.597 618.126C245.506 618.451 245.48 618.792 245.52 619.129C245.559 619.465 245.664 619.788 245.826 620.077C245.989 620.365 246.205 620.613 246.462 620.802C250.909 624.07 253.211 625.389 258.774 629.612C262.262 632.212 269.011 637.983 273.72 641.576C278.429 645.169 281.935 640.238 280.26 638.289C272.761 629.517 271.122 624.013 269.883 619.025C269.669 618.12 269.168 617.328 268.471 616.789Z" fill="#FC0B0D"/>
    <path d="M258.234 599.016L235.475 586.612L237.829 579.847L262.141 592.919L258.234 599.016Z" fill="#FC0B0D"/>
    <path d="M228.638 365.25L226.72 370.754C226.528 371.174 226.982 371.614 227.627 371.614H285.318C285.824 371.614 286.243 371.346 286.278 371.002L286.766 365.536C286.766 365.173 286.365 364.848 285.824 364.848H229.545C229.376 364.831 229.205 364.858 229.047 364.928C228.889 364.998 228.749 365.108 228.638 365.25Z" fill="#FC0B0D"/>
    <path opacity="0.4" d="M228.638 365.25L226.72 370.754C226.528 371.174 226.982 371.614 227.627 371.614H285.318C285.824 371.614 286.243 371.346 286.278 371.002L286.766 365.536C286.766 365.173 286.365 364.848 285.824 364.848H229.545C229.376 364.831 229.205 364.858 229.047 364.928C228.889 364.998 228.749 365.108 228.638 365.25Z" fill="white"/>
    <path d="M237.725 372.149H236.207C235.911 372.149 235.684 371.977 235.702 371.766L236.417 364.676C236.417 364.485 236.696 364.313 236.992 364.313H238.509C238.806 364.313 239.033 364.485 239.015 364.676L238.3 371.766C238.283 371.977 238.021 372.149 237.725 372.149Z" fill="#FC0B0D"/>
    <path d="M273.302 372.149H271.802C271.506 372.149 271.279 371.977 271.296 371.766L271.994 364.676C271.994 364.485 272.29 364.313 272.587 364.313H274.087C274.383 364.313 274.627 364.485 274.593 364.676L273.895 371.766C273.808 371.977 273.616 372.149 273.302 372.149Z" fill="#FC0B0D"/>
    <g style="mix-blend-mode:multiply">
    <path d="M236.399 695.794C262.203 695.794 283.121 694.134 283.121 692.086C283.121 690.039 262.203 688.379 236.399 688.379C210.595 688.379 189.677 690.039 189.677 692.086C189.677 694.134 210.595 695.794 236.399 695.794Z" fill="#F5F5F5"/>
    </g>
    <path d="M264.861 686.85C256.594 684.212 247.421 680.83 241.875 677.294C241.718 677.18 241.543 677.122 241.386 677.027V636.014H258.111C259.381 635.932 260.574 635.321 261.446 634.307C262.319 633.293 262.804 631.952 262.804 630.558C262.804 629.165 262.319 627.824 261.446 626.809C260.574 625.795 259.381 625.184 258.111 625.102H241.474V438.158H231.428V625.102H214.808C214.129 625.058 213.45 625.166 212.81 625.421C212.171 625.675 211.587 626.07 211.092 626.581C210.597 627.092 210.203 627.708 209.934 628.392C209.664 629.076 209.525 629.813 209.525 630.558C209.525 631.303 209.664 632.04 209.934 632.724C210.203 633.408 210.597 634.025 211.092 634.536C211.587 635.047 212.171 635.441 212.81 635.696C213.45 635.95 214.129 636.058 214.808 636.014H231.428V676.969C231.271 676.969 231.114 677.122 230.957 677.237C225.324 680.83 216.22 684.212 207.954 686.792C207.396 686.977 206.916 687.375 206.602 687.914C206.288 688.453 206.161 689.098 206.243 689.73C206.326 690.363 206.612 690.943 207.05 691.365C207.489 691.786 208.051 692.022 208.634 692.029H264.18C264.738 691.987 265.266 691.737 265.675 691.321C266.085 690.904 266.352 690.347 266.431 689.741C266.511 689.135 266.398 688.517 266.112 687.991C265.827 687.465 265.385 687.062 264.861 686.85Z" fill="#E0E0E0"/>
    <path d="M267.425 419.124H205.408C200.419 419.124 196.374 423.556 196.374 429.023V449.223C196.374 454.691 200.419 459.123 205.408 459.123H267.425C272.414 459.123 276.459 454.691 276.459 449.223V429.023C276.459 423.556 272.414 419.124 267.425 419.124Z" fill="#FC0B0D"/>
    <path d="M204.833 459.142V462.62C204.833 465.487 207.675 467.819 211.163 467.819H261.739C265.227 467.819 268.07 465.487 268.07 462.62V459.142H204.833Z" fill="#FC0B0D"/>
    <path opacity="0.3" d="M204.833 459.142V462.62C204.833 465.487 207.675 467.819 211.163 467.819H261.739C265.227 467.819 268.07 465.487 268.07 462.62V459.142H204.833Z" fill="white"/>
    </svg>
    