<svg width="80" height="78" viewBox="0 0 80 78" fill="none" xmlns="http://www.w3.org/2000/svg">
<path d="M70 31.6875H65V26.8125C65 19.9875 59.5 14.625 52.5 14.625H45V9.75H52.5C62.25 9.75 70 17.3062 70 26.8125V31.6875ZM55 48.75H62.5V53.625H55V48.75ZM55 58.5H62.5V63.375H55V58.5Z" fill="#FC0B0D"/>
<path d="M67.5 73.125H55V68.25H67.5V43.875H50V65.8125C50 69.9563 46.75 73.125 42.5 73.125C38.25 73.125 35 69.9563 35 65.8125V58.5H40V65.8125C40 67.275 41 68.25 42.5 68.25C44 68.25 45 67.275 45 65.8125V39H72.5V68.25C72.5 70.9313 70.25 73.125 67.5 73.125ZM30 68.25H27.5C17.75 68.25 10 60.6937 10 51.1875V41.4375H15V51.1875C15 58.0125 20.5 63.375 27.5 63.375H30V68.25ZM27.5 24.375V29.25H35C37.75 29.25 40 27.0562 40 24.375V9.75C40 7.06875 37.75 4.875 35 4.875H10C7.25 4.875 5 7.06875 5 9.75V24.375C5 27.0562 7.25 29.25 10 29.25H16L20.25 36.5625L24.5 34.125L18.75 24.375H10V9.75H35V24.375H27.5Z" fill="#FC0B0D"/>
</svg>
