<svg width="467" height="393" viewBox="0 0 467 393" fill="none" xmlns="http://www.w3.org/2000/svg">
<path d="M357.48 253.865C357.496 271.672 353.751 289.286 346.486 305.577C339.221 321.869 328.596 336.479 315.292 348.471C311.591 351.81 307.701 354.937 303.639 357.837C298.426 361.558 292.939 364.887 287.223 367.795H287.163C285.945 368.428 284.707 369.03 283.459 369.613C282.889 369.89 282.33 370.147 281.751 370.404C278.136 372.044 274.429 373.516 270.628 374.82C267.632 375.808 264.556 376.796 261.451 377.606C243.538 382.32 224.813 383.192 206.532 380.164C204.365 379.809 202.228 379.404 200.101 378.939L198.304 378.534C192.878 377.28 187.541 375.676 182.327 373.733C179.298 372.607 176.329 371.372 173.42 370.028C172.292 369.504 171.163 368.971 170.055 368.418C169.296 368.042 168.547 367.657 167.798 367.272C147.481 356.715 130.365 341.005 118.202 321.751C106.039 302.497 99.2666 280.391 98.5784 257.695C97.8902 235 103.311 212.532 114.285 192.591C125.26 172.65 141.393 155.953 161.034 144.21C180.675 132.467 203.118 126.1 226.064 125.761C249.01 125.421 271.635 131.122 291.623 142.278C311.61 153.435 328.241 169.647 339.813 189.254C351.385 208.862 357.482 231.16 357.48 253.865Z" fill="url(#paint0_linear_4_999)"/>
<path d="M261.93 263.132C270.178 271.53 294.203 304.211 294.203 304.211L279.444 325.62L266.174 283.089L261.93 263.132Z" fill="url(#paint1_linear_4_999)"/>
<path d="M287.163 367.864C285.945 368.497 284.707 369.099 283.458 369.682C282.889 369.959 282.33 370.216 281.751 370.473C278.136 372.113 274.428 373.585 270.627 374.889C267.632 375.877 264.556 376.865 261.451 377.675C243.538 382.389 224.813 383.262 206.531 380.234C204.365 379.878 202.228 379.473 200.101 379.008C192.312 384.324 185.123 388.819 180.36 390.864L180.749 387.574L182.367 373.812L186.111 341.793L200.95 327.596L167.589 330.154C167.589 330.154 171.093 282.041 184.773 272.142C198.453 262.243 212.802 253.371 212.802 253.371C214.514 254.488 216.4 255.319 218.384 255.831C223.129 257.129 228.061 257.626 232.973 257.303C238.824 257.036 244.675 251.652 244.955 251.375C244.955 251.375 254.142 253.183 261.93 263.172C265.815 268.313 268.604 274.182 270.128 280.421C272.045 287.722 275.45 304.774 279.325 325.373C281.861 338.631 284.527 353.332 287.163 367.864Z" fill="url(#paint2_linear_4_999)"/>
<path d="M294.203 304.25L308.442 320.759L358.518 271.579L360.416 261.512L370.401 252.927L365.957 266.017V283.069C365.957 283.069 327.334 345.013 316.69 348.204C304.238 351.949 279.464 325.6 279.464 325.6L294.203 304.25Z" fill="url(#paint3_linear_4_999)"/>
<path d="M242.219 326.825L253.832 354.488L268.84 348.105L257.836 321.036L242.219 326.825Z" fill="#7E57C2"/>
<path d="M258.395 344.697C256.528 346.218 253.742 345.863 250.287 346.041C245.646 346.162 241.194 347.888 237.706 350.921C233.063 354.784 220.082 364.891 207.101 374.118C204.744 375.788 202.388 377.438 200.111 379.058C192.322 384.373 185.133 388.868 180.37 390.913C179.118 391.528 177.766 391.919 176.376 392.069C169.706 392.237 168.278 378.406 167.868 367.37C167.738 363.705 167.708 360.356 167.639 357.936C167.359 348.254 167.639 330.273 167.639 330.273L201 327.704L197.465 350.565L196.846 354.606V354.636L206.831 350.98L207.141 350.872L242.589 337.841L245.035 333.662L246.593 337.613H246.742L261.92 335.638C261.92 335.638 262.18 341.625 258.395 344.697Z" fill="url(#paint4_linear_4_999)"/>
<path d="M250.737 200.516C249.868 198.165 249.119 196.564 248.899 196.09V195.971C248.899 195.971 248.13 197.848 242.339 197.394C236.547 196.94 234.63 194.094 234.63 194.094C234.63 194.094 236.448 200.259 229.548 202.897C222.907 205.446 220.291 203.796 220.112 203.677C220.461 204.053 225.653 209.546 222.208 213.903C218.644 218.418 210.625 217.528 210.625 217.528V217.588C211.635 219.849 212.765 222.055 214.011 224.197C214.67 225.323 215.319 226.361 216.008 227.329V227.398C217.776 230.244 220.164 232.664 222.997 234.482C221.752 241.711 218.175 248.348 212.802 253.401C214.61 254.334 216.474 255.155 218.384 255.861C222.109 257.254 227.111 258.637 231.575 258.252C236.747 257.705 241.525 255.266 244.975 251.415L242.688 242.731L240.631 234.906C259.224 230.214 254.112 209.803 250.737 200.516ZM239.593 235.193L239.922 235.114L240.452 234.966C239.682 235.295 238.868 235.515 238.035 235.618C238.465 235.509 238.904 235.39 239.363 235.252L239.593 235.193Z" fill="url(#paint5_linear_4_999)"/>
<path d="M261.93 195.715C254.261 202.689 250.946 200.723 250.737 200.536V200.516C249.868 198.165 249.119 196.564 248.909 196.09L248.859 195.971C248.859 195.971 248.08 197.848 242.289 197.394C236.497 196.94 234.59 194.094 234.59 194.094C234.59 194.094 236.408 200.259 229.508 202.897C222.857 205.446 220.241 203.796 220.072 203.677C220.421 204.043 225.613 209.536 222.168 213.893C218.604 218.408 210.586 217.528 210.586 217.528V217.578C211.594 219.842 212.724 222.052 213.971 224.197C214.636 225.317 215.302 226.361 215.968 227.329V227.398C215.968 227.398 213.232 232.723 208.349 232.614C203.466 232.506 203.356 227.675 203.356 227.675C203.356 227.675 199.901 233.839 189.227 227.902C178.553 221.964 185.672 213.359 185.672 213.359C185.672 213.359 178.103 207.629 178.103 199.044C178.103 190.459 189.886 183.928 189.886 183.928C189.886 183.928 185.672 173.96 192.782 168.467C199.891 162.974 210.576 166.698 210.576 166.698C210.576 166.698 210.366 153.944 221.25 154.152C232.134 154.359 234.6 160.949 234.6 160.949C234.6 160.949 244.386 153.46 254.072 160.514C263.757 167.568 259.773 179.868 259.773 179.868C259.773 179.868 269.928 188.453 261.93 195.715Z" fill="url(#paint6_linear_4_999)"/>
<path opacity="0.15" d="M242.768 242.701C238.125 241.249 229.867 235.707 229.867 235.707C233.126 236.047 236.419 235.874 239.623 235.193L239.952 235.114L240.592 234.926H240.681L242.768 242.701Z" fill="black"/>
<path opacity="0.15" d="M205.453 298.046L200.95 327.685L197.415 350.546L189.187 357.313L207.091 350.882C207.091 350.882 202.447 337.762 205.453 298.046Z" fill="black"/>
<path opacity="0.15" d="M200.081 379.008C202.208 379.473 204.345 379.878 206.512 380.233C206.621 378.208 206.821 376.163 207.101 374.118L200.081 379.008Z" fill="black"/>
<g filter="url(#filter0_d_4_999)">
<path d="M156.805 10H103.413C96.0452 10 90.0725 15.9094 90.0725 23.199V76.0246C90.0725 83.3142 96.0452 89.2236 103.413 89.2236H156.805C164.172 89.2236 170.145 83.3142 170.145 76.0246V23.199C170.145 15.9094 164.172 10 156.805 10Z" fill="#56CCF2"/>
</g>
<rect x="109.268" y="50.5222" width="43.0244" height="22.7541" rx="4.4" fill="white"/>
<path d="M118.02 50.5222C118.02 50.5222 116.116 25.5127 130.772 25.5127C145.428 25.5127 144.372 50.5461 144.372 50.5461" stroke="white" stroke-width="1.9"/>
<g filter="url(#filter1_d_4_999)">
<path d="M432.928 209.726H379.537C372.169 209.726 366.196 215.635 366.196 222.925V275.75C366.196 283.04 372.169 288.949 379.537 288.949H432.928C440.296 288.949 446.269 283.04 446.269 275.75V222.925C446.269 215.635 440.296 209.726 432.928 209.726Z" fill="#F2C94C"/>
</g>
<path d="M220.062 130.37L222.734 121.273C223.056 120.558 222.997 119.725 222.578 119.063C222.158 118.401 221.436 118.001 220.66 118H218.17L217.34 119.851C216.732 121.18 215.419 122.03 213.975 122.03C212.531 122.03 211.218 121.18 210.61 119.851L209.78 118H207.768C206.891 118 206.074 118.452 205.599 119.2C205.125 119.948 205.059 120.89 205.423 121.698L207.913 130.37L204.178 142.572C203.799 143.843 204.033 145.221 204.81 146.289C205.586 147.358 206.815 147.992 208.124 148H219.88C221.188 147.991 222.416 147.356 223.192 146.288C223.968 145.219 224.201 143.842 223.822 142.572L220.062 130.37Z" fill="white"/>
<g filter="url(#filter2_d_4_999)">
<path d="M76.732 209.726H23.3404C15.9727 209.726 10 215.635 10 222.925V275.75C10 283.04 15.9727 288.949 23.3404 288.949H76.732C84.0998 288.949 90.0725 283.04 90.0725 275.75V222.925C90.0725 215.635 84.0998 209.726 76.732 209.726Z" fill="#F58A8A"/>
</g>
<path d="M39.3125 135.625C37.5693 135.627 35.8624 136.124 34.3908 137.058C32.9191 137.992 31.7432 139.325 31 140.902C30.2568 139.325 29.0809 137.992 27.6092 137.058C26.1376 136.124 24.4307 135.627 22.6875 135.625H17.875V136.5C17.875 141.566 21.9965 145.688 27.0625 145.688H34.9375C40.0035 145.688 44.125 141.566 44.125 136.5V135.625H39.3125ZM27.0625 143.938C23.2573 143.938 20.1104 141.065 19.6762 137.375H22.6875C26.4927 137.375 29.6396 140.247 30.0738 143.938H27.0625ZM34.9375 143.938H31.9262C32.3604 140.247 35.5073 137.375 39.3125 137.375H42.3238C41.8896 141.065 38.7427 143.938 34.9375 143.938Z" fill="white"/>
<path d="M26.2546 133.37C26.4201 134.354 26.8895 135.262 27.597 135.966L27.8533 136.222H28.2157C29.2136 136.225 30.1872 135.915 31 135.336C31.8128 135.915 32.7864 136.225 33.7842 136.222H34.1467L34.403 135.966C35.1105 135.262 35.5799 134.355 35.7454 133.371C36.7294 133.205 37.6369 132.736 38.3405 132.028L38.5967 131.772V131.41C38.5996 130.412 38.2898 129.438 37.711 128.625C38.2899 127.812 38.5997 126.839 38.597 125.841V125.478L38.3407 125.222C37.6371 124.515 36.7296 124.045 35.7456 123.88C35.5801 122.896 35.1107 121.988 34.4032 121.285L34.1469 121.028H33.7845C32.7866 121.025 31.8129 121.335 31 121.914C30.1872 121.335 29.2136 121.025 28.2157 121.028H27.8533L27.597 121.284C26.8895 121.988 26.4201 122.895 26.2546 123.879C25.2706 124.045 24.3631 124.514 23.6595 125.222L23.4032 125.478V125.841C23.4004 126.838 23.7102 127.812 24.289 128.625C23.7101 129.438 23.4003 130.411 23.403 131.409V131.772L23.6593 132.028C24.363 132.736 25.2705 133.205 26.2546 133.37ZM26.0503 128.006C25.565 127.524 25.2567 126.892 25.1753 126.213C25.7132 125.79 26.3782 125.561 27.0625 125.563H27.9375V124.688C27.9355 124.003 28.1645 123.338 28.5874 122.801C29.2668 122.882 29.8988 123.19 30.3811 123.676L31 124.294L31.6187 123.675C32.101 123.19 32.7331 122.882 33.4124 122.8C33.8355 123.338 34.0645 124.003 34.0625 124.688V125.563H34.9375C35.6217 125.561 36.2866 125.79 36.8245 126.212C36.7431 126.892 36.4348 127.524 35.9495 128.006L35.3312 128.625L35.95 129.244C36.4353 129.726 36.7436 130.358 36.825 131.038C36.287 131.461 35.6219 131.69 34.9375 131.688H34.0625V132.563C34.0645 133.247 33.8355 133.912 33.4126 134.45C32.7332 134.368 32.1012 134.06 31.6188 133.575L31 132.956L30.3813 133.575C29.8989 134.06 29.2669 134.368 28.5875 134.45C28.1645 133.912 27.9355 133.247 27.9375 132.563V131.688H27.0625C26.3783 131.69 25.7134 131.461 25.1754 131.038C25.2569 130.358 25.5652 129.726 26.0504 129.244L26.6687 128.625L26.0503 128.006Z" fill="white"/>
<g filter="url(#filter3_d_4_999)">
<path d="M345.339 10H291.948C284.58 10 278.607 15.9094 278.607 23.199V76.0246C278.607 83.3142 284.58 89.2236 291.948 89.2236H345.339C352.707 89.2236 358.68 83.3142 358.68 76.0246V23.199C358.68 15.9094 352.707 10 345.339 10Z" fill="#6FCF97"/>
</g>
<path d="M331.399 21.6345C323.002 24.2453 314.008 24.2453 305.612 21.6345C304.679 23.8161 301.964 30.6737 301.964 37.0919C301.964 45.9151 304.814 70.5978 304.814 70.5978C304.814 70.5978 310.677 75.8098 318.509 75.9289C326.334 75.7949 332.197 70.5829 332.197 70.5829C332.197 70.5829 335.054 45.8853 335.054 37.077C335.054 30.6737 332.331 23.8161 331.399 21.6345Z" fill="white"/>
<defs>
<filter id="filter0_d_4_999" x="80.0725" y="0" width="110.072" height="109.224" filterUnits="userSpaceOnUse" color-interpolation-filters="sRGB">
<feFlood flood-opacity="0" result="BackgroundImageFix"/>
<feColorMatrix in="SourceAlpha" type="matrix" values="0 0 0 0 0 0 0 0 0 0 0 0 0 0 0 0 0 0 127 0" result="hardAlpha"/>
<feOffset dx="5" dy="5"/>
<feGaussianBlur stdDeviation="7.5"/>
<feColorMatrix type="matrix" values="0 0 0 0 0 0 0 0 0 0 0 0 0 0 0 0 0 0 0.15 0"/>
<feBlend mode="normal" in2="BackgroundImageFix" result="effect1_dropShadow_4_999"/>
<feBlend mode="normal" in="SourceGraphic" in2="effect1_dropShadow_4_999" result="shape"/>
</filter>
<filter id="filter1_d_4_999" x="356.196" y="199.726" width="110.072" height="109.224" filterUnits="userSpaceOnUse" color-interpolation-filters="sRGB">
<feFlood flood-opacity="0" result="BackgroundImageFix"/>
<feColorMatrix in="SourceAlpha" type="matrix" values="0 0 0 0 0 0 0 0 0 0 0 0 0 0 0 0 0 0 127 0" result="hardAlpha"/>
<feOffset dx="5" dy="5"/>
<feGaussianBlur stdDeviation="7.5"/>
<feColorMatrix type="matrix" values="0 0 0 0 0 0 0 0 0 0 0 0 0 0 0 0 0 0 0.15 0"/>
<feBlend mode="normal" in2="BackgroundImageFix" result="effect1_dropShadow_4_999"/>
<feBlend mode="normal" in="SourceGraphic" in2="effect1_dropShadow_4_999" result="shape"/>
</filter>
<filter id="filter2_d_4_999" x="0" y="199.726" width="110.072" height="109.224" filterUnits="userSpaceOnUse" color-interpolation-filters="sRGB">
<feFlood flood-opacity="0" result="BackgroundImageFix"/>
<feColorMatrix in="SourceAlpha" type="matrix" values="0 0 0 0 0 0 0 0 0 0 0 0 0 0 0 0 0 0 127 0" result="hardAlpha"/>
<feOffset dx="5" dy="5"/>
<feGaussianBlur stdDeviation="7.5"/>
<feColorMatrix type="matrix" values="0 0 0 0 0 0 0 0 0 0 0 0 0 0 0 0 0 0 0.15 0"/>
<feBlend mode="normal" in2="BackgroundImageFix" result="effect1_dropShadow_4_999"/>
<feBlend mode="normal" in="SourceGraphic" in2="effect1_dropShadow_4_999" result="shape"/>
</filter>
<filter id="filter3_d_4_999" x="268.607" y="0" width="110.072" height="109.224" filterUnits="userSpaceOnUse" color-interpolation-filters="sRGB">
<feFlood flood-opacity="0" result="BackgroundImageFix"/>
<feColorMatrix in="SourceAlpha" type="matrix" values="0 0 0 0 0 0 0 0 0 0 0 0 0 0 0 0 0 0 127 0" result="hardAlpha"/>
<feOffset dx="5" dy="5"/>
<feGaussianBlur stdDeviation="7.5"/>
<feColorMatrix type="matrix" values="0 0 0 0 0 0 0 0 0 0 0 0 0 0 0 0 0 0 0.15 0"/>
<feBlend mode="normal" in2="BackgroundImageFix" result="effect1_dropShadow_4_999"/>
<feBlend mode="normal" in="SourceGraphic" in2="effect1_dropShadow_4_999" result="shape"/>
</filter>
<linearGradient id="paint0_linear_4_999" x1="228.531" y1="139.657" x2="224.196" y2="392.147" gradientUnits="userSpaceOnUse">
<stop stop-color="white" stop-opacity="0"/>
<stop offset="1" stop-color="#64B5F6" stop-opacity="0.6"/>
</linearGradient>
<linearGradient id="paint1_linear_4_999" x1="252.154" y1="254.646" x2="287.28" y2="317.03" gradientUnits="userSpaceOnUse">
<stop stop-color="#E57373"/>
<stop offset="1" stop-color="#AD1457"/>
</linearGradient>
<linearGradient id="paint2_linear_4_999" x1="54765.3" y1="77155.5" x2="51070.8" y2="95585.1" gradientUnits="userSpaceOnUse">
<stop stop-color="#E57373"/>
<stop offset="1" stop-color="#AD1457"/>
</linearGradient>
<linearGradient id="paint3_linear_4_999" x1="383.951" y1="277.477" x2="287.724" y2="333.82" gradientUnits="userSpaceOnUse">
<stop stop-color="#FFF8E1"/>
<stop offset="1" stop-color="#FFCC80"/>
</linearGradient>
<linearGradient id="paint4_linear_4_999" x1="42135.4" y1="43270.3" x2="36949.5" y2="39736.1" gradientUnits="userSpaceOnUse">
<stop stop-color="#FFF8E1"/>
<stop offset="1" stop-color="#FFCC80"/>
</linearGradient>
<linearGradient id="paint5_linear_4_999" x1="260.512" y1="210.577" x2="207.936" y2="232.461" gradientUnits="userSpaceOnUse">
<stop stop-color="#FFF8E1"/>
<stop offset="1" stop-color="#FFCC80"/>
</linearGradient>
<linearGradient id="paint6_linear_4_999" x1="248.41" y1="153.776" x2="187.528" y2="236.92" gradientUnits="userSpaceOnUse">
<stop stop-color="#FFB74D"/>
<stop offset="1" stop-color="#F4511E"/>
</linearGradient>
</defs>
</svg>
