<svg width="255" height="238" viewBox="0 0 255 238" fill="none" xmlns="http://www.w3.org/2000/svg">
<path d="M211.57 143.544H181.688V157.675H211.57C215.555 157.675 219.141 160.65 219.141 164.741C219.141 168.831 215.953 171.806 211.57 171.806H25.1016C21.1172 171.806 17.5312 174.781 17.5312 178.872C17.5312 182.591 20.7188 185.938 25.1016 185.938H211.969C224.32 185.938 234.281 176.641 234.281 165.113C234.281 152.841 223.922 143.544 211.57 143.544ZM217.148 95.5719L202.406 94.4563C202.406 94.0844 211.57 43.1375 213.562 32.725C214.758 26.775 217.148 10.0406 239.859 10.0406V24.1719C230.695 24.1719 229.5 27.5188 228.703 33.8407C226.313 44.2532 217.148 94.8281 217.148 95.5719Z" fill="#B2C1C0"/>
<path d="M217.945 45.7406H15.9375C8.36718 45.7406 7.17187 52.4343 8.36718 56.1531L31.0781 150.609C32.2734 154.328 36.2578 157.303 40.6406 157.303H199.219C203.203 157.303 207.187 154.328 207.984 150.237L224.719 52.4343C225.117 49.0875 221.93 45.7406 217.945 45.7406ZM27.4922 77.35L23.5078 63.2187C23.1094 61.3593 24.3047 59.8718 26.2969 59.8718H54.5859C56.5781 59.8718 58.5703 61.3593 58.5703 63.2187L60.164 77.35C60.5625 79.2093 58.9687 80.6968 56.9765 80.6968H31.875C29.8828 80.6968 27.8906 79.2093 27.4922 77.35ZM40.2422 111.934C38.25 111.934 36.2578 110.447 35.4609 108.587L32.6719 97.8031C32.2734 95.9437 33.4687 94.4562 35.4609 94.4562H58.1719C60.164 94.4562 62.1562 95.9437 62.1562 97.8031L63.3515 108.216C63.75 110.075 62.1562 111.562 60.164 111.562C60.5625 111.934 40.2422 111.934 40.2422 111.934ZM64.1484 143.544H48.6094C46.6172 143.544 44.625 142.056 43.8281 140.197L41.0391 129.412C40.6406 127.553 41.8359 126.066 43.8281 126.066H61.7578C63.75 126.066 65.7422 127.553 65.7422 129.412L66.9375 139.825C67.7344 141.684 66.1406 143.544 64.1484 143.544ZM109.969 139.825C109.969 141.684 108.375 143.172 106.383 143.172H86.8594C84.8672 143.172 82.875 141.684 82.875 139.825L81.6797 129.412C81.2812 127.553 82.875 126.066 84.8672 126.066H106.383C108.375 126.066 109.969 127.553 109.969 129.412V139.825ZM109.969 108.587C109.969 110.447 108.375 111.934 106.383 111.934H83.2734C81.2812 111.934 79.289 110.447 79.289 108.587L78.0937 98.175C77.6953 96.3156 79.289 94.8281 81.2812 94.8281H106.383C108.375 94.8281 109.969 96.3156 109.969 98.175V108.587ZM109.969 77.35C109.969 79.2093 108.375 80.6968 106.383 80.6968H79.6875C77.6953 80.6968 75.7031 79.2093 75.7031 77.35L73.7109 63.2187C73.3125 61.3593 74.9062 59.8718 76.8984 59.8718H105.984C107.977 59.8718 109.57 61.3593 109.57 63.2187C109.969 63.2187 109.969 77.35 109.969 77.35ZM150.609 139.825C150.211 141.684 148.617 143.172 146.625 143.172H129.094C127.102 143.172 125.508 141.684 125.508 139.825V129.412C125.508 127.553 127.102 126.066 129.094 126.066H148.617C150.609 126.066 152.203 127.553 151.805 129.412L150.609 139.825ZM154.195 108.587C153.797 110.447 152.203 111.934 150.211 111.934H129.094C127.102 111.934 125.508 110.447 125.508 108.587V98.175C125.508 96.3156 127.102 94.8281 129.094 94.8281H152.203C154.195 94.8281 155.789 96.3156 155.391 98.175L154.195 108.587ZM157.781 77.35C157.383 79.2093 155.789 80.6968 153.797 80.6968H129.094C127.102 80.6968 125.508 79.2093 125.508 77.35V63.2187C125.508 61.3593 127.102 59.8718 129.094 59.8718H156.187C158.18 59.8718 159.773 61.3593 159.375 63.2187L157.781 77.35ZM192.445 139.825C192.047 141.684 190.055 143.172 188.062 143.172H168.937C166.945 143.172 165.352 141.684 165.75 139.825L166.945 129.412C167.344 127.553 168.937 126.066 170.93 126.066H191.25C193.242 126.066 194.836 127.553 194.437 129.412L192.445 139.825ZM197.625 108.587C197.227 110.447 195.234 111.934 193.242 111.934H172.125C170.133 111.934 168.539 110.447 168.937 108.587L170.133 98.175C170.531 96.3156 172.125 94.8281 174.117 94.8281H196.031C198.023 94.8281 199.617 96.3156 199.219 98.175L197.625 108.587ZM202.805 77.35C202.406 79.2093 200.414 80.6968 198.422 80.6968H175.711C173.719 80.6968 172.125 79.2093 172.523 77.35L174.117 63.2187C174.516 61.3593 176.109 59.8718 178.102 59.8718H201.609C203.602 59.8718 205.195 61.3593 204.797 63.2187L202.805 77.35Z" fill="#F15744"/>
<path d="M49.0078 230.562C61.3307 230.562 71.3203 221.239 71.3203 209.737C71.3203 198.236 61.3307 188.912 49.0078 188.912C36.685 188.912 26.6953 198.236 26.6953 209.737C26.6953 221.239 36.685 230.562 49.0078 230.562Z" fill="#62727A"/>
<path d="M49.0078 220.15C55.1692 220.15 60.1641 215.488 60.1641 209.737C60.1641 203.987 55.1692 199.325 49.0078 199.325C42.8464 199.325 37.8516 203.987 37.8516 209.737C37.8516 215.488 42.8464 220.15 49.0078 220.15Z" fill="white"/>
<path d="M183.68 230.562C196.003 230.562 205.992 221.239 205.992 209.737C205.992 198.236 196.003 188.912 183.68 188.912C171.357 188.912 161.367 198.236 161.367 209.737C161.367 221.239 171.357 230.562 183.68 230.562Z" fill="#62727A"/>
<path d="M194.836 209.737C194.836 215.687 189.656 220.15 183.68 220.15C177.305 220.15 172.523 215.316 172.523 209.737C172.523 203.787 177.703 199.325 183.68 199.325C189.656 199.325 194.836 203.787 194.836 209.737Z" fill="white"/>
<path d="M243.445 7.4375H232.289V28.2625H243.445C245.438 28.2625 247.031 26.775 247.031 24.9156V10.7844C247.031 8.925 245.438 7.4375 243.445 7.4375Z" fill="#62727A"/>
<path d="M49.0078 181.847C32.6719 181.847 19.125 194.491 19.125 209.738H78.8906C78.8906 194.119 65.7422 181.847 49.0078 181.847ZM183.68 181.847C167.344 181.847 153.797 194.491 153.797 209.738H213.562C213.562 194.119 200.016 181.847 183.68 181.847Z" fill="#F15744"/>
</svg>
