<svg width="139" height="108" viewBox="0 0 139 108" fill="none" xmlns="http://www.w3.org/2000/svg">
<path d="M116.75 28.375V45.1937C116.75 45.1937 102.323 45.25 102.25 45.1937V28.375H80.5C80.5 28.375 80.5725 17.1812 80.5 17.125H102.25V0.25H116.75V17.125H138.5V28.375H116.75ZM95 50.875V34H73.25V17.125H15.25C7.275 17.125 0.75 22.1875 0.75 28.375V95.875C0.75 102.062 7.275 107.125 15.25 107.125H102.25C110.225 107.125 116.75 102.062 116.75 95.875V50.875H95ZM15.25 95.875L37 73.375L51.5 90.25L73.25 67.75L102.25 95.875H15.25Z" fill="#EB3223"/>
</svg>
